<?xml version="1.0" encoding="UTF-8" standalone="no"?>
<!-- Created with Inkscape (http://www.inkscape.org/) -->

<svg
   xmlns:ns1="http://www.iki.fi/pav/software/textext/"
   xmlns:osb="http://www.openswatchbook.org/uri/2009/osb"
   xmlns:dc="http://purl.org/dc/elements/1.1/"
   xmlns:cc="http://creativecommons.org/ns#"
   xmlns:rdf="http://www.w3.org/1999/02/22-rdf-syntax-ns#"
   xmlns:svg="http://www.w3.org/2000/svg"
   xmlns="http://www.w3.org/2000/svg"
   xmlns:xlink="http://www.w3.org/1999/xlink"
   xmlns:sodipodi="http://sodipodi.sourceforge.net/DTD/sodipodi-0.dtd"
   xmlns:inkscape="http://www.inkscape.org/namespaces/inkscape"
   width="15.87512mm"
   height="6.8827057mm"
   viewBox="0 0 15.87512 6.8827057"
   version="1.1"
   id="svg1147"
   inkscape:version="0.92.3 (2405546, 2018-03-11)"
   sodipodi:docname="duplicate-const.svg">
  <sodipodi:namedview
     id="base"
     pagecolor="#ffffff"
     bordercolor="#666666"
     borderopacity="1.0"
     inkscape:pageopacity="0.0"
     inkscape:pageshadow="2"
     inkscape:zoom="22.627417"
     inkscape:cx="12.714801"
     inkscape:cy="16.334334"
     inkscape:document-units="mm"
     inkscape:current-layer="layer1"
     showgrid="true"
     inkscape:window-width="2493"
     inkscape:window-height="1385"
     inkscape:window-x="67"
     inkscape:window-y="27"
     inkscape:window-maximized="1"
     showguides="true"
     inkscape:snap-bbox="true"
     inkscape:bbox-nodes="false"
     inkscape:snap-nodes="false"
     inkscape:snap-others="false"
     inkscape:snap-grids="false"
     inkscape:snap-to-guides="false"
     inkscape:snap-bbox-midpoints="true"
     inkscape:snap-global="true"
     inkscape:snap-bbox-edge-midpoints="false"
     inkscape:bbox-paths="false"
     inkscape:snap-object-midpoints="false"
     inkscape:object-nodes="true"
     inkscape:snap-smooth-nodes="false"
     inkscape:object-paths="false"
     inkscape:snap-intersection-paths="false"
     inkscape:snap-text-baseline="true"
     fit-margin-top="0"
     fit-margin-left="0"
     fit-margin-right="0"
     fit-margin-bottom="0">
    <inkscape:grid
       originy="-51.281531"
       originx="-22.489531"
       type="xygrid"
       id="grid2187" />
  </sodipodi:namedview>
  <defs
     id="defs1141">
    <linearGradient
       gradientTransform="translate(6.8791666,0.06614584)"
       id="linearGradient2647"
       osb:paint="solid">
      <stop
         style="stop-color:#ffccaa;stop-opacity:1;"
         offset="0"
         id="stop2645" />
    </linearGradient>
    <linearGradient
       inkscape:collect="always"
       xlink:href="#linearGradient2647"
       id="linearGradient1541"
       gradientUnits="userSpaceOnUse"
       gradientTransform="matrix(0.46307341,0,0,-0.73216348,53.320672,445.66988)"
       x1="72.760414"
       y1="272.92291"
       x2="75.40625"
       y2="272.92291" />
  </defs>
  <metadata
     id="metadata1144">
    <rdf:RDF>
      <cc:Work
         rdf:about="">
        <dc:format>image/svg+xml</dc:format>
        <dc:type
           rdf:resource="http://purl.org/dc/dcmitype/StillImage" />
        <dc:title />
      </cc:Work>
    </rdf:RDF>
  </metadata>
  <g
     inkscape:label="Layer 1"
     inkscape:groupmode="layer"
     id="layer1"
     transform="translate(-22.489531,-238.83576)">
    <path
       sodipodi:nodetypes="cc"
       inkscape:connector-curvature="0"
       id="path1491"
       d="m 38.364583,244.08333 -11.90625,0.0117"
       style="fill:#000000;fill-opacity:1;stroke:#000000;stroke-width:0.14;stroke-linecap:butt;stroke-linejoin:miter;stroke-miterlimit:4;stroke-dasharray:none;stroke-opacity:1" />
    <rect
       y="242.49583"
       x="33.072918"
       height="3.1749923"
       width="3.174999"
       id="rect1033"
       style="opacity:1;fill:#ffffff;fill-opacity:1;stroke:#000000;stroke-width:0.09525121;stroke-miterlimit:4;stroke-dasharray:none;stroke-opacity:1"
       inkscape:transform-center-x="1.7811006"
       inkscape:transform-center-y="-9.5579996" />
    <g
       transform="matrix(0.352778,0,0,0.352778,-19.131158,197.67671)"
       ns1:version="0.9.1"
       ns1:texconverter="pdflatex"
       ns1:pdfconverter="pdf2svg"
       ns1:text="$H$"
       ns1:preamble="/home/bichselb/Documents/PhD/Projects/quantum/quantum/paper/figures/header.tex"
       ns1:scale="1.0000000567"
       ns1:alignment="middle center"
       inkscapeversion="0.92.3"
       ns1:jacobian_sqrt="0.352778"
       id="g1262">
      <g
         id="g1260">
        <g
           style="fill:#000000;fill-opacity:1"
           id="g1258">
          <path
             inkscape:connector-curvature="0"
             style="stroke:none;stroke-width:0"
             d="M 6.015625,-5.671875 5.609375,-3.625 H 2.5 l 0.390625,-2.046875 c 0.0625,-0.28125 0.203125,-0.421875 0.625,-0.453125 L 3.8125,-6.15625 C 3.859375,-6.203125 3.875,-6.359375 3.84375,-6.453125 3.390625,-6.4375 3.03125,-6.4375 2.640625,-6.4375 c -0.375,0 -0.828125,0 -1.265625,-0.015625 -0.03125,0.046875 -0.0625,0.25 -0.03125,0.296875 L 1.6875,-6.125 c 0.390625,0.03125 0.5,0.15625 0.4375,0.453125 L 1.15625,-0.75 c -0.0625,0.265625 -0.203125,0.40625 -0.625,0.453125 l -0.296875,0.03125 C 0.1875,-0.234375 0.171875,-0.0625 0.203125,0.015625 0.65625,0.015625 1.015625,0 1.40625,0 c 0.375,0 0.828125,0.015625 1.265625,0.015625 0.03125,-0.03125 0.0625,-0.234375 0.03125,-0.28125 l -0.34375,-0.03125 c -0.390625,-0.03125 -0.5,-0.15625 -0.4375,-0.453125 L 2.40625,-3.203125 H 5.515625 L 5.046875,-0.75 c -0.0625,0.265625 -0.21875,0.40625 -0.625,0.453125 l -0.3125,0.03125 C 4.078125,-0.234375 4.0625,-0.0625 4.09375,0.015625 4.546875,0.015625 4.90625,0 5.296875,0 5.671875,0 6.125,0.015625 6.5625,0.015625 6.59375,-0.015625 6.625,-0.21875 6.59375,-0.265625 L 6.25,-0.296875 C 5.859375,-0.328125 5.75,-0.453125 5.8125,-0.75 L 6.78125,-5.671875 C 6.84375,-5.953125 6.984375,-6.09375 7.390625,-6.125 l 0.3125,-0.03125 C 7.75,-6.203125 7.765625,-6.359375 7.71875,-6.453125 7.28125,-6.4375 6.921875,-6.4375 6.53125,-6.4375 c -0.375,0 -0.828125,0 -1.265625,-0.015625 -0.03125,0.046875 -0.0625,0.25 -0.03125,0.296875 l 0.34375,0.03125 c 0.390625,0.03125 0.5,0.15625 0.4375,0.453125 z m 0,0"
             transform="translate(148.513,134.765)"
             id="path1256" />
        </g>
      </g>
    </g>
    <text
       id="text2451"
       y="240.37917"
       x="36.512501"
       style="font-style:normal;font-weight:normal;font-size:10.58333302px;line-height:1.25;font-family:sans-serif;letter-spacing:0px;word-spacing:0px;fill:#000000;fill-opacity:1;stroke:none;stroke-width:0.26458332"
       xml:space="preserve"><tspan
         style="font-style:normal;font-variant:normal;font-weight:normal;font-stretch:normal;font-size:2.82222223px;font-family:sans-serif;-inkscape-font-specification:'sans-serif, Normal';font-variant-ligatures:normal;font-variant-caps:normal;font-variant-numeric:normal;font-feature-settings:normal;text-align:start;writing-mode:lr-tb;text-anchor:start;stroke-width:0.26458332"
         y="240.37917"
         x="36.512501"
         id="tspan2449"
         sodipodi:role="line">x</tspan></text>
    <text
       xml:space="preserve"
       style="font-style:normal;font-weight:normal;font-size:10.58333302px;line-height:1.25;font-family:sans-serif;letter-spacing:0px;word-spacing:0px;fill:#000000;fill-opacity:1;stroke:none;stroke-width:0.26458332"
       x="36.512501"
       y="243.28958"
       id="text1051"><tspan
         sodipodi:role="line"
         id="tspan1049"
         x="36.512501"
         y="243.28958"
         style="font-style:normal;font-variant:normal;font-weight:normal;font-stretch:normal;font-size:2.82222223px;font-family:sans-serif;-inkscape-font-specification:'sans-serif, Normal';font-variant-ligatures:normal;font-variant-caps:normal;font-variant-numeric:normal;font-feature-settings:normal;text-align:start;writing-mode:lr-tb;text-anchor:start;stroke-width:0.26458332">y</tspan></text>
    <path
       style="fill:#000000;fill-opacity:1;stroke:#000000;stroke-width:0.14;stroke-linecap:butt;stroke-linejoin:miter;stroke-miterlimit:4;stroke-dasharray:none;stroke-opacity:1"
       d="m 38.364583,240.89663 -15.875,0.0117"
       id="path1035"
       inkscape:connector-curvature="0"
       sodipodi:nodetypes="cc" />
    <rect
       inkscape:transform-center-y="-9.5579996"
       inkscape:transform-center-x="1.7811006"
       style="opacity:1;fill:#ffffff;fill-opacity:1;stroke:#000000;stroke-width:0.09525121;stroke-miterlimit:4;stroke-dasharray:none;stroke-opacity:1"
       id="rect834"
       width="3.1866543"
       height="5.5562496"
       x="27.78125"
       y="240.11459" />
    <text
       xml:space="preserve"
       style="font-style:normal;font-weight:normal;font-size:10.58333302px;line-height:1.25;font-family:sans-serif;letter-spacing:0px;word-spacing:0px;fill:#000000;fill-opacity:1;stroke:none;stroke-width:0.26458332"
       x="22.489584"
       y="240.37917"
       id="text1033"><tspan
         sodipodi:role="line"
         id="tspan1031"
         x="22.489584"
         y="240.37917"
         style="font-style:normal;font-variant:normal;font-weight:normal;font-stretch:normal;font-size:2.82222223px;font-family:sans-serif;-inkscape-font-specification:'sans-serif, Normal';font-variant-ligatures:normal;font-variant-caps:normal;font-variant-numeric:normal;font-feature-settings:normal;text-align:start;writing-mode:lr-tb;text-anchor:start;stroke-width:0.26458332">x</tspan></text>
    <g
       transform="matrix(0.07385218,0,0,0.07385218,16.49436,232.3652)"
       ns1:version="0.9.1"
       ns1:texconverter="pdflatex"
       ns1:pdfconverter="pdf2svg"
       ns1:text="$\n\\begin{array}{ccc}\n\\ket{a}\\ket{b} \\\\\n\\mapsto \\\\\n\\ket{a}\\ket{a \\oplus b}\n\\end{array}\n$"
       ns1:preamble="/home/bichselb/Documents/PhD/Projects/quantum/quantum/paper/figures/header.tex"
       ns1:scale="1.0000000567"
       ns1:alignment="middle center"
       inkscapeversion="0.92.3"
       ns1:jacobian_sqrt="0.352778"
       id="g1501">
      <g
         id="surface1">
        <g
           style="fill:#000000;fill-opacity:1"
           id="g1440">
          <path
             inkscape:connector-curvature="0"
             style="stroke:none;stroke-width:0"
             d="m 1.28125,1.921875 v -8.96875 h -0.5625 v 8.96875 z m 0,0"
             transform="translate(162.204,133.156)"
             id="path1438" />
        </g>
        <g
           style="fill:#000000;fill-opacity:1"
           id="g1444">
          <path
             inkscape:connector-curvature="0"
             style="stroke:none;stroke-width:0"
             d="M 4.09375,-4.3125 C 3.8125,-4.34375 3.6875,-4.375 3.296875,-4.375 c -1.078125,0 -2.515625,1.5625 -2.515625,3.125 0,0.5625 0.125,1.34375 0.96875,1.34375 0.515625,0 1.078125,-0.546875 1.671875,-1.421875 L 3.453125,-1.3125 3.3125,-0.890625 C 3.25,-0.671875 3.21875,-0.46875 3.21875,-0.34375 c 0,0.1875 0.078125,0.4375 0.40625,0.4375 0.625,0 1.015625,-0.390625 1.28125,-0.96875 C 4.859375,-0.953125 4.8125,-1.03125 4.671875,-1.03125 4.40625,-0.65625 4.21875,-0.5 4.109375,-0.5 4.09375,-0.5 4,-0.515625 4,-0.640625 4,-0.734375 4.0625,-1 4.09375,-1.203125 l 0.6875,-3.09375 c -0.234375,0 -0.5,0.03125 -0.6875,-0.015625 z m -0.5,2.125 c -0.5,0.90625 -1.265625,1.734375 -1.578125,1.734375 -0.34375,0 -0.4375,-0.390625 -0.4375,-0.953125 0,-1.0625 0.828125,-2.65625 1.734375,-2.65625 0.21875,0 0.4375,0.0625 0.625,0.1875 0,0 -0.09375,1.046875 -0.34375,1.6875 z m 0,0"
             transform="translate(164.266,133.171)"
             id="path1442" />
        </g>
        <g
           style="fill:#000000;fill-opacity:1"
           id="g1448">
          <path
             inkscape:connector-curvature="0"
             style="stroke:none;stroke-width:0"
             d="M 3.125,-2.5625 0.984375,-7.046875 H 0.5 L 2.4375,-2.5625 0.5,1.921875 h 0.484375 z m 0,0"
             transform="translate(169.457,133.156)"
             id="path1446" />
        </g>
        <g
           style="fill:#000000;fill-opacity:1"
           id="g1452">
          <path
             inkscape:connector-curvature="0"
             style="stroke:none;stroke-width:0"
             d="m 1.28125,1.921875 v -8.96875 h -0.5625 v 8.96875 z m 0,0"
             transform="translate(175.53419,133.156)"
             id="path1450" />
        </g>
        <g
           style="fill:#000000;fill-opacity:1"
           id="g1456">
          <path
             inkscape:connector-curvature="0"
             style="stroke:none;stroke-width:0"
             d="m 2.84375,-5.8125 c 0.140625,-0.640625 0.25,-1.046875 0.25,-1.046875 0,-0.0625 -0.03125,-0.09375 -0.125,-0.09375 -0.265625,0.09375 -0.984375,0.21875 -1.390625,0.25 l -0.03125,0.25 c 0,0.015625 0.015625,0.046875 0.046875,0.046875 l 0.3125,0.015625 c 0.125,0 0.203125,0.0625 0.203125,0.28125 0,0.109375 -0.015625,0.28125 -0.0625,0.5 L 1.015625,-1.0625 c -0.140625,0.625 0.125,1.15625 1.015625,1.15625 0.3125,0 0.703125,-0.125 1.046875,-0.359375 0.90625,-0.625 1.828125,-1.90625 1.828125,-2.921875 0,-0.6875 -0.140625,-1.1875 -1.046875,-1.1875 -0.6875,0 -1.203125,0.625 -1.546875,1.03125 H 2.296875 Z M 4.09375,-3 c 0,1.4375 -1.25,2.75 -2.015625,2.75 -0.359375,0 -0.40625,-0.390625 -0.25,-1.0625 L 2.15625,-2.75 C 2.625,-3.296875 3.078125,-3.90625 3.5625,-3.90625 c 0.296875,0 0.53125,0.234375 0.53125,0.90625 z m 0,0"
             transform="translate(177.403,133.171)"
             id="path1454" />
        </g>
        <g
           style="fill:#000000;fill-opacity:1"
           id="g1460">
          <path
             inkscape:connector-curvature="0"
             style="stroke:none;stroke-width:0"
             d="M 3.125,-2.5625 0.984375,-7.046875 H 0.5 L 2.4375,-2.5625 0.5,1.921875 h 0.484375 z m 0,0"
             transform="translate(182.763,133.156)"
             id="path1458" />
        </g>
        <g
           style="fill:#000000;fill-opacity:1"
           id="g1466">
          <path
             inkscape:connector-curvature="0"
             style="stroke:none;stroke-width:0"
             d="m 1.6875,-2.28125 v -0.5625 H 1.171875 V -4.609375 H 0.625 v 4.09375 H 1.171875 V -2.28125 Z m 0,0"
             transform="translate(169.191,145.126)"
             id="path1462" />
          <path
             inkscape:connector-curvature="0"
             style="stroke:none;stroke-width:0"
             d="m 9.59375,-2.578125 -1.953125,-2.03125 -0.3125,0.328125 1.1875,1.4375 H 0.625 v 0.5625 h 7.890625 l -1.1875,1.4375 0.3125,0.328125 z m 0,0"
             transform="translate(169.191,145.126)"
             id="path1464" />
        </g>
        <g
           style="fill:#000000;fill-opacity:1"
           id="g1470">
          <path
             inkscape:connector-curvature="0"
             style="stroke:none;stroke-width:0"
             d="m 1.28125,1.921875 v -8.96875 h -0.5625 v 8.96875 z m 0,0"
             transform="translate(154.092,157.066)"
             id="path1468" />
        </g>
        <g
           style="fill:#000000;fill-opacity:1"
           id="g1474">
          <path
             inkscape:connector-curvature="0"
             style="stroke:none;stroke-width:0"
             d="M 4.09375,-4.3125 C 3.8125,-4.34375 3.6875,-4.375 3.296875,-4.375 c -1.078125,0 -2.515625,1.5625 -2.515625,3.125 0,0.5625 0.125,1.34375 0.96875,1.34375 0.515625,0 1.078125,-0.546875 1.671875,-1.421875 L 3.453125,-1.3125 3.3125,-0.890625 C 3.25,-0.671875 3.21875,-0.46875 3.21875,-0.34375 c 0,0.1875 0.078125,0.4375 0.40625,0.4375 0.625,0 1.015625,-0.390625 1.28125,-0.96875 C 4.859375,-0.953125 4.8125,-1.03125 4.671875,-1.03125 4.40625,-0.65625 4.21875,-0.5 4.109375,-0.5 4.09375,-0.5 4,-0.515625 4,-0.640625 4,-0.734375 4.0625,-1 4.09375,-1.203125 l 0.6875,-3.09375 c -0.234375,0 -0.5,0.03125 -0.6875,-0.015625 z m -0.5,2.125 c -0.5,0.90625 -1.265625,1.734375 -1.578125,1.734375 -0.34375,0 -0.4375,-0.390625 -0.4375,-0.953125 0,-1.0625 0.828125,-2.65625 1.734375,-2.65625 0.21875,0 0.4375,0.0625 0.625,0.1875 0,0 -0.09375,1.046875 -0.34375,1.6875 z m 0,0"
             transform="translate(156.154,157.081)"
             id="path1472" />
        </g>
        <g
           style="fill:#000000;fill-opacity:1"
           id="g1478">
          <path
             inkscape:connector-curvature="0"
             style="stroke:none;stroke-width:0"
             d="M 3.125,-2.5625 0.984375,-7.046875 H 0.5 L 2.4375,-2.5625 0.5,1.921875 h 0.484375 z m 0,0"
             transform="translate(161.345,157.066)"
             id="path1476" />
        </g>
        <g
           style="fill:#000000;fill-opacity:1"
           id="g1482">
          <path
             inkscape:connector-curvature="0"
             style="stroke:none;stroke-width:0"
             d="m 1.28125,1.921875 v -8.96875 h -0.5625 v 8.96875 z m 0,0"
             transform="translate(167.42219,157.066)"
             id="path1480" />
        </g>
        <g
           style="fill:#000000;fill-opacity:1"
           id="g1486">
          <path
             inkscape:connector-curvature="0"
             style="stroke:none;stroke-width:0"
             d="M 4.09375,-4.3125 C 3.8125,-4.34375 3.6875,-4.375 3.296875,-4.375 c -1.078125,0 -2.515625,1.5625 -2.515625,3.125 0,0.5625 0.125,1.34375 0.96875,1.34375 0.515625,0 1.078125,-0.546875 1.671875,-1.421875 L 3.453125,-1.3125 3.3125,-0.890625 C 3.25,-0.671875 3.21875,-0.46875 3.21875,-0.34375 c 0,0.1875 0.078125,0.4375 0.40625,0.4375 0.625,0 1.015625,-0.390625 1.28125,-0.96875 C 4.859375,-0.953125 4.8125,-1.03125 4.671875,-1.03125 4.40625,-0.65625 4.21875,-0.5 4.109375,-0.5 4.09375,-0.5 4,-0.515625 4,-0.640625 4,-0.734375 4.0625,-1 4.09375,-1.203125 l 0.6875,-3.09375 c -0.234375,0 -0.5,0.03125 -0.6875,-0.015625 z m -0.5,2.125 c -0.5,0.90625 -1.265625,1.734375 -1.578125,1.734375 -0.34375,0 -0.4375,-0.390625 -0.4375,-0.953125 0,-1.0625 0.828125,-2.65625 1.734375,-2.65625 0.21875,0 0.4375,0.0625 0.625,0.1875 0,0 -0.09375,1.046875 -0.34375,1.6875 z m 0,0"
             transform="translate(169.481,157.081)"
             id="path1484" />
        </g>
        <g
           style="fill:#000000;fill-opacity:1"
           id="g1490">
          <path
             inkscape:connector-curvature="0"
             style="stroke:none;stroke-width:0"
             d="m 6.171875,-2.5625 c 0,-1.65625 -1.34375,-3 -3,-3 -1.65625,0 -3,1.34375 -3,3 0,1.65625 1.34375,3 3,3 1.65625,0 3,-1.34375 3,-3 z M 5.71875,-2.796875 H 3.390625 v -2.3125 C 4.609375,-5 5.609375,-4.03125 5.71875,-2.796875 Z m -2.765625,-2.3125 -0.015625,2.3125 H 0.625 C 0.734375,-4.015625 1.71875,-5 2.953125,-5.109375 Z m 2.765625,2.78125 C 5.609375,-1.109375 4.609375,-0.125 3.390625,-0.015625 V -2.34375 Z m -2.765625,2.3125 C 1.71875,-0.125 0.734375,-1.109375 0.625,-2.34375 h 2.328125 z m 0,0"
             transform="translate(177.184,157.081)"
             id="path1488" />
        </g>
        <g
           style="fill:#000000;fill-opacity:1"
           id="g1494">
          <path
             inkscape:connector-curvature="0"
             style="stroke:none;stroke-width:0"
             d="m 2.84375,-5.8125 c 0.140625,-0.640625 0.25,-1.046875 0.25,-1.046875 0,-0.0625 -0.03125,-0.09375 -0.125,-0.09375 -0.265625,0.09375 -0.984375,0.21875 -1.390625,0.25 l -0.03125,0.25 c 0,0.015625 0.015625,0.046875 0.046875,0.046875 l 0.3125,0.015625 c 0.125,0 0.203125,0.0625 0.203125,0.28125 0,0.109375 -0.015625,0.28125 -0.0625,0.5 L 1.015625,-1.0625 c -0.140625,0.625 0.125,1.15625 1.015625,1.15625 0.3125,0 0.703125,-0.125 1.046875,-0.359375 0.90625,-0.625 1.828125,-1.90625 1.828125,-2.921875 0,-0.6875 -0.140625,-1.1875 -1.046875,-1.1875 -0.6875,0 -1.203125,0.625 -1.546875,1.03125 H 2.296875 Z M 4.09375,-3 c 0,1.4375 -1.25,2.75 -2.015625,2.75 -0.359375,0 -0.40625,-0.390625 -0.25,-1.0625 L 2.15625,-2.75 C 2.625,-3.296875 3.078125,-3.90625 3.5625,-3.90625 c 0.296875,0 0.53125,0.234375 0.53125,0.90625 z m 0,0"
             transform="translate(185.515,157.081)"
             id="path1492" />
        </g>
        <g
           style="fill:#000000;fill-opacity:1"
           id="g1498">
          <path
             inkscape:connector-curvature="0"
             style="stroke:none;stroke-width:0"
             d="M 3.125,-2.5625 0.984375,-7.046875 H 0.5 L 2.4375,-2.5625 0.5,1.921875 h 0.484375 z m 0,0"
             transform="translate(190.875,157.066)"
             id="path1496" />
        </g>
      </g>
    </g>
    <g
       id="g1637"
       ns1:jacobian_sqrt="0.268814"
       inkscapeversion="0.92.3"
       ns1:alignment="middle center"
       ns1:scale="0.761992479301"
       ns1:preamble="/home/bichselb/Documents/PhD/Projects/quantum/quantum/paper/figures/header.tex"
       ns1:text="$\\ket{0}$"
       ns1:pdfconverter="pdf2svg"
       ns1:texconverter="pdflatex"
       ns1:version="0.9.1"
       transform="matrix(0.268814,0,0,0.268814,-16.97848,208.60312)">
      <g
         id="g1635">
        <g
           id="g1625"
           style="fill:#000000;fill-opacity:1">
          <path
             id="path1623"
             transform="translate(149.111,134.75)"
             d="m 1.28125,1.921875 v -8.96875 h -0.5625 v 8.96875 z m 0,0"
             style="stroke:none;stroke-width:0"
             inkscape:connector-curvature="0" />
        </g>
        <g
           id="g1629"
           style="fill:#000000;fill-opacity:1">
          <path
             id="path1627"
             transform="translate(151.502,134.765)"
             d="m 2.3125,-5.734375 c 0.171875,0 0.328125,0.0625 0.453125,0.171875 0.3125,0.265625 0.578125,1.015625 0.578125,2.359375 0,0.90625 -0.03125,1.53125 -0.171875,2.046875 C 2.953125,-0.34375 2.46875,-0.25 2.28125,-0.25 1.359375,-0.25 1.25,-1.953125 1.25,-2.828125 c 0,-2.453125 0.609375,-2.90625 1.0625,-2.90625 z M 2.265625,0.09375 c 0.78125,0 1.9375,-0.765625 1.9375,-3.109375 C 4.203125,-4 3.96875,-4.859375 3.53125,-5.4375 3.265625,-5.78125 2.84375,-6.078125 2.3125,-6.078125 c -0.984375,0 -1.921875,1.171875 -1.921875,3.140625 0,1.078125 0.328125,2.0625 0.875,2.625 0.28125,0.265625 0.625,0.40625 1,0.40625 z m 0,0"
             style="stroke:none;stroke-width:0"
             inkscape:connector-curvature="0" />
        </g>
        <g
           id="g1633"
           style="fill:#000000;fill-opacity:1">
          <path
             id="path1631"
             transform="translate(156.134,134.75)"
             d="M 3.125,-2.5625 0.984375,-7.046875 H 0.5 L 2.4375,-2.5625 0.5,1.921875 h 0.484375 z m 0,0"
             style="stroke:none;stroke-width:0"
             inkscape:connector-curvature="0" />
        </g>
      </g>
    </g>
  </g>
</svg>
