<?xml version="1.0" encoding="UTF-8" standalone="no"?>
<!-- Created with Inkscape (http://www.inkscape.org/) -->

<svg
   xmlns:ns1="http://www.iki.fi/pav/software/textext/"
   xmlns:osb="http://www.openswatchbook.org/uri/2009/osb"
   xmlns:dc="http://purl.org/dc/elements/1.1/"
   xmlns:cc="http://creativecommons.org/ns#"
   xmlns:rdf="http://www.w3.org/1999/02/22-rdf-syntax-ns#"
   xmlns:svg="http://www.w3.org/2000/svg"
   xmlns="http://www.w3.org/2000/svg"
   xmlns:sodipodi="http://sodipodi.sourceforge.net/DTD/sodipodi-0.dtd"
   xmlns:inkscape="http://www.inkscape.org/namespaces/inkscape"
   width="10.816571cm"
   height="3.0819185cm"
   viewBox="0 0 108.16571 30.819185"
   version="1.1"
   id="svg8"
   inkscape:version="0.92.3 (2405546, 2018-03-11)"
   sodipodi:docname="inplace.svg">
  <sodipodi:namedview
     id="base"
     pagecolor="#ffffff"
     bordercolor="#666666"
     borderopacity="1.0"
     inkscape:pageopacity="0.0"
     inkscape:pageshadow="2"
     inkscape:zoom="2.8"
     inkscape:cx="278.80536"
     inkscape:cy="26.256902"
     inkscape:document-units="mm"
     inkscape:current-layer="layer1"
     showgrid="true"
     inkscape:snap-text-baseline="true"
     inkscape:window-width="2493"
     inkscape:window-height="1385"
     inkscape:window-x="67"
     inkscape:window-y="27"
     inkscape:window-maximized="1"
     units="cm"
     inkscape:snap-bbox="true"
     inkscape:snap-global="true"
     fit-margin-top="0"
     fit-margin-left="0"
     fit-margin-right="0"
     fit-margin-bottom="0">
    <inkscape:grid
       id="grid3713"
       type="xygrid"
       originx="-5.4370709"
       originy="-11.658836" />
  </sodipodi:namedview>
  <defs
     id="defs2">
    <linearGradient
       osb:paint="solid"
       id="linearGradient1627">
      <stop
         id="stop1625"
         offset="0"
         style="stop-color:#f18c4b;stop-opacity:1;" />
    </linearGradient>
    <linearGradient
       id="linearGradient1621">
      <stop
         id="stop1619"
         offset="0"
         style="stop-color:#ff9955;stop-opacity:1;" />
    </linearGradient>
    <linearGradient
       gradientTransform="matrix(4.2531654e-5,0,0,4.2531654e-5,-42.588631,362.28647)"
       osb:paint="solid"
       id="linearGradient1557">
      <stop
         id="stop1555"
         offset="0"
         style="stop-color:#aa4400;stop-opacity:1;" />
    </linearGradient>
    <linearGradient
       gradientTransform="scale(0.26458333)"
       id="linearGradient1551">
      <stop
         id="stop1549"
         offset="0"
         style="stop-color:#ff7f2a;stop-opacity:1;" />
    </linearGradient>
    <linearGradient
       gradientTransform="matrix(-1.2255839e-5,0,0,-0.00221644,60.309026,433.46304)"
       osb:paint="solid"
       id="linearGradient1545">
      <stop
         id="stop1543"
         offset="0"
         style="stop-color:#ffccaa;stop-opacity:1;" />
    </linearGradient>
    <clipPath
       id="clipPath4902"
       clipPathUnits="userSpaceOnUse">
      <g
         style="fill:#b3b3b3;stroke:#b3b3b3"
         id="use4904"
         inkscape:label="Clip">
        <rect
           id="rect5047"
           width="16.933334"
           height="4.4979172"
           x="21.695833"
           y="13.102083"
           style="fill:#b3b3b3;stroke:none;stroke-width:0.19044399" />
        <rect
           id="rect5049"
           width="11.641666"
           height="4.4979172"
           x="39.158333"
           y="13.102083"
           style="fill:#b3b3b3;stroke:none;stroke-width:0.15790783" />
        <rect
           id="rect5051"
           width="11.112496"
           height="4.4979186"
           x="76.464584"
           y="13.102082"
           style="fill:#b3b3b3;stroke:none;stroke-width:0.15427729" />
        <rect
           id="rect5053"
           width="14.552086"
           height="4.4979186"
           x="91.54583"
           y="13.102081"
           style="fill:#b3b3b3;stroke:none;stroke-width:0.17654638" />
        <rect
           id="rect5055"
           width="14.287496"
           height="4.4979172"
           x="59.795834"
           y="13.102082"
           style="fill:#b3b3b3;stroke:none;stroke-width:0.17493396" />
        <path
           style="fill:#b3b3b3;fill-opacity:1;stroke:#b3b3b3;stroke-width:0.26458332px;stroke-linecap:butt;stroke-linejoin:miter;stroke-opacity:1"
           d="M 41.275,13.63125 40.216667,9.927084"
           id="path5057"
           inkscape:connector-curvature="0" />
        <path
           style="fill:#b3b3b3;fill-opacity:1;stroke:#b3b3b3;stroke-width:0.26458332px;stroke-linecap:butt;stroke-linejoin:miter;stroke-opacity:1"
           d="M 87.047916,20.774999 85.989583,17.070833"
           id="path5059"
           inkscape:connector-curvature="0" />
        <path
           style="fill:#b3b3b3;fill-opacity:1;stroke:#b3b3b3;stroke-width:0.26458332px;stroke-linecap:butt;stroke-linejoin:miter;stroke-opacity:1"
           d="M 94.191667,13.63125 93.133334,9.9270837"
           id="path5061"
           inkscape:connector-curvature="0" />
        <path
           style="fill:#b3b3b3;fill-opacity:1;stroke:#b3b3b3;stroke-width:0.26458332px;stroke-linecap:butt;stroke-linejoin:miter;stroke-opacity:1"
           d="M 61.647917,13.63125 60.589584,9.927084"
           id="path5063"
           inkscape:connector-curvature="0" />
        <rect
           id="rect5065"
           width="18.25625"
           height="3.704165"
           x="15.610416"
           y="18.129168"
           style="fill:#b3b3b3;stroke:none;stroke-width:0.17944907" />
        <path
           style="fill:#b3b3b3;fill-opacity:1;stroke:#b3b3b3;stroke-width:0.26458332px;stroke-linecap:butt;stroke-linejoin:miter;stroke-opacity:1"
           d="m 20.372917,21.304167 -1.058333,3.704166"
           id="path5067"
           inkscape:connector-curvature="0" />
      </g>
    </clipPath>
  </defs>
  <metadata
     id="metadata5">
    <rdf:RDF>
      <cc:Work
         rdf:about="">
        <dc:format>image/svg+xml</dc:format>
        <dc:type
           rdf:resource="http://purl.org/dc/dcmitype/StillImage" />
        <dc:title></dc:title>
      </cc:Work>
    </rdf:RDF>
  </metadata>
  <g
     transform="translate(-5.4370708,-254.52199)"
     id="layer1"
     inkscape:groupmode="layer"
     inkscape:label="Layer 1">
    <rect
       style="fill:url(#linearGradient1545);fill-opacity:1;stroke:none;stroke-width:0.2049457"
       y="265.77914"
       x="99.21875"
       height="7.4083571"
       width="11.90625"
       id="rect946-6" />
    <path
       style="fill:url(#linearGradient1545);stroke:#000000;stroke-width:0;stroke-linecap:butt;stroke-linejoin:miter;stroke-miterlimit:4;stroke-dasharray:none;stroke-opacity:1"
       d="m 99.218758,260.72504 v 5.58326 h 5.583252 l -5.583252,-5.58326"
       id="path1063-7"
       inkscape:connector-curvature="0" />
    <rect
       style="fill:url(#linearGradient1545);fill-opacity:1;stroke:none;stroke-width:0.12961885"
       y="265.77917"
       x="13.229176"
       height="7.4083347"
       width="4.7624998"
       id="rect907-6" />
    <text
       xml:space="preserve"
       style="font-style:normal;font-weight:normal;font-size:20.30273438px;line-height:1.25;font-family:sans-serif;letter-spacing:0px;word-spacing:0px;fill:url(#linearGradient1557);fill-opacity:1;stroke:none;stroke-width:0.5075683"
       x="-3.4395828"
       y="245.40627"
       id="text4543"><tspan
         sodipodi:role="line"
         x="-3.4395828"
         y="263.36942"
         style="font-size:5.41406202px;fill:url(#linearGradient1557);fill-opacity:1;stroke-width:0.5075683"
         id="tspan1007" /></text>
    <rect
       id="rect914"
       width="5.0270834"
       height="7.4083509"
       x="45.243755"
       y="265.77917"
       style="fill:url(#linearGradient1545);fill-opacity:1;stroke:none;stroke-width:0.13317087" />
    <rect
       style="fill:url(#linearGradient1545);fill-opacity:1;stroke:none;stroke-width:0.2049457"
       y="265.77917"
       x="54.23959"
       height="7.4083571"
       width="11.90625"
       id="rect946" />
    <rect
       id="rect914-6"
       width="5.0270839"
       height="7.4083505"
       x="20.90209"
       y="265.77917"
       style="fill:url(#linearGradient1545);fill-opacity:1;stroke:none;stroke-width:0.13317089" />
    <text
       id="text3725"
       y="271.86459"
       x="13.229176"
       style="font-style:normal;font-weight:normal;font-size:6.76757765px;line-height:1.25;font-family:sans-serif;letter-spacing:0px;word-spacing:0px;fill:#000000;fill-opacity:1;stroke:none;stroke-width:0.5075683"
       xml:space="preserve"><tspan
         id="tspan3729"
         style="font-style:normal;font-variant:normal;font-weight:normal;font-stretch:normal;font-size:6.76757765px;line-height:1.25;font-family:'DejaVu Sans Mono';-inkscape-font-specification:'DejaVu Sans Mono';stroke-width:0.5075683"
         y="271.86459"
         x="13.229176"
         sodipodi:role="line">a[e] := f(..., a[e], ...)</tspan></text>
    <text
       id="text4543-7-9"
       y="283.77084"
       x="94.305061"
       style="font-style:normal;font-weight:normal;font-size:20.30273247px;line-height:1.25;font-family:sans-serif;letter-spacing:0px;word-spacing:0px;fill:url(#linearGradient1557);fill-opacity:1;stroke:none;stroke-width:0.5075683"
       xml:space="preserve"><tspan
         id="tspan962"
         style="font-size:5.41406202px;fill:url(#linearGradient1557);fill-opacity:1;stroke-width:0.5075683"
         y="301.73401"
         x="94.305061"
         sodipodi:role="line" /></text>
    <text
       id="text3725-5-9"
       y="283.77084"
       x="39.687504"
       style="font-style:normal;font-weight:normal;font-size:6.76757765px;line-height:1.25;font-family:sans-serif;letter-spacing:0px;word-spacing:0px;fill:url(#linearGradient1557);fill-opacity:1;stroke:none;stroke-width:0.5075683"
       xml:space="preserve"><tspan
         id="tspan1101"
         style="font-style:normal;font-variant:normal;font-weight:normal;font-stretch:normal;font-size:5.41406202px;line-height:1.25;font-family:sans-serif;-inkscape-font-specification:sans-serif;text-align:start;text-anchor:start;fill:url(#linearGradient1557);fill-opacity:1;stroke-width:0.5075683"
         y="283.77084"
         x="39.687504"
         sodipodi:role="line">type:</tspan></text>
    <text
       id="text3725-5-1-9"
       y="283.76318"
       x="5.2916737"
       style="font-style:normal;font-weight:normal;font-size:6.76757765px;line-height:1.25;font-family:sans-serif;letter-spacing:0px;word-spacing:0px;fill:url(#linearGradient1557);fill-opacity:1;stroke:none;stroke-width:0.5075683"
       xml:space="preserve"><tspan
         id="tspan1050"
         style="font-style:normal;font-variant:normal;font-weight:normal;font-stretch:normal;font-size:5.41406202px;line-height:1.25;font-family:sans-serif;-inkscape-font-specification:sans-serif;text-align:start;text-anchor:start;fill:url(#linearGradient1557);fill-opacity:1;stroke-width:0.5075683"
         y="283.76318"
         x="5.2916737"
         sodipodi:role="line">type:</tspan></text>
    <path
       style="fill:url(#linearGradient1545);stroke:#000000;stroke-width:0;stroke-linecap:butt;stroke-linejoin:miter;stroke-miterlimit:4;stroke-dasharray:none;stroke-opacity:1"
       d="m 54.23959,260.72507 v 5.58326 h 5.58326 l -5.58326,-5.58326"
       id="path1063"
       inkscape:connector-curvature="0" />
    <path
       inkscape:connector-curvature="0"
       id="path1067-1"
       d="m 20.90209,260.72507 v 5.58326 h 4.233333 l -4.233333,-5.58326"
       style="fill:url(#linearGradient1545);stroke:#000000;stroke-width:0;stroke-linecap:butt;stroke-linejoin:miter;stroke-miterlimit:4;stroke-dasharray:none;stroke-opacity:1" />
    <text
       id="text4543-9"
       y="258.63541"
       x="5.2916737"
       style="font-style:normal;font-weight:normal;font-size:20.30273438px;line-height:1.25;font-family:sans-serif;letter-spacing:0px;word-spacing:0px;fill:url(#linearGradient1557);fill-opacity:1;stroke:none;stroke-width:0.5075683"
       xml:space="preserve"><tspan
         style="font-size:5.41406202px;fill:url(#linearGradient1557);fill-opacity:1;stroke-width:0.5075683"
         y="258.63541"
         x="5.2916737"
         id="tspan4541-1"
         sodipodi:role="line">type: lifted !ℕ</tspan></text>
    <text
       id="text3725-5-1-6"
       y="258.63541"
       x="51.593754"
       style="font-style:normal;font-weight:normal;font-size:6.76757765px;line-height:1.25;font-family:sans-serif;letter-spacing:0px;word-spacing:0px;fill:url(#linearGradient1557);fill-opacity:1;stroke:none;stroke-width:0.5075683"
       xml:space="preserve"><tspan
         id="tspan927"
         style="font-style:normal;font-variant:normal;font-weight:normal;font-stretch:normal;font-size:5.41406202px;line-height:1.25;font-family:sans-serif;-inkscape-font-specification:sans-serif;text-align:start;text-anchor:start;fill:url(#linearGradient1557);fill-opacity:1;stroke-width:0.5075683"
         y="258.63541"
         x="51.593754"
         sodipodi:role="line">must not contain a</tspan></text>
    <g
       id="g964"
       ns1:jacobian_sqrt="0.865239"
       inkscapeversion="0.92.3"
       ns1:alignment="middle center"
       ns1:scale="2.4526458566"
       ns1:preamble="/home/bichselb/.config/inkscape/extensions/textext/default_packages.tex"
       ns1:text="$\\tau[]$"
       ns1:pdfconverter="pdf2svg"
       ns1:texconverter="pdflatex"
       ns1:version="0.9.1"
       transform="matrix(0.65997883,0,0,0.65997883,-78.145513,194.74918)"
       style="fill:url(#linearGradient1557)">
      <g
         id="surface1"
         style="fill:url(#linearGradient1557)">
        <g
           id="g955"
           style="fill:url(#linearGradient1557);fill-opacity:1">
          <path
             inkscape:connector-curvature="0"
             id="path953"
             transform="translate(148.712,134.765)"
             d="m 2.9375,-3.71875 h 1.671875 c 0.125,0 0.484375,0 0.484375,-0.34375 0,-0.234375 -0.203125,-0.234375 -0.40625,-0.234375 H 1.90625 c -0.203125,0 -0.59375,0 -1.03125,0.46875 -0.328125,0.359375 -0.609375,0.84375 -0.609375,0.890625 0,0.015625 0,0.109375 0.125,0.109375 0.078125,0 0.09375,-0.046875 0.15625,-0.125 C 1.03125,-3.71875 1.609375,-3.71875 1.8125,-3.71875 h 0.828125 l -0.96875,3.203125 C 1.625,-0.40625 1.5625,-0.1875 1.5625,-0.15625 c 0,0.109375 0.078125,0.28125 0.296875,0.28125 0.328125,0 0.375,-0.28125 0.40625,-0.4375 z m 0,0"
             style="fill:url(#linearGradient1557);stroke:none;stroke-width:0" />
        </g>
        <g
           id="g961"
           style="fill:url(#linearGradient1557);fill-opacity:1">
          <path
             inkscape:connector-curvature="0"
             id="path957"
             transform="translate(154.195,134.765)"
             d="M 2.546875,2.5 V 2.09375 h -0.96875 v -9.171875 h 0.96875 v -0.40625 h -1.375 V 2.5 Z m 0,0"
             style="fill:url(#linearGradient1557);stroke:none;stroke-width:0" />
          <path
             inkscape:connector-curvature="0"
             id="path959"
             transform="translate(156.96261,134.765)"
             d="M 1.578125,-7.484375 H 0.21875 v 0.40625 H 1.1875 V 2.09375 H 0.21875 V 2.5 h 1.359375 z m 0,0"
             style="fill:url(#linearGradient1557);stroke:none;stroke-width:0" />
        </g>
      </g>
    </g>
    <path
       inkscape:connector-curvature="0"
       id="path1067-1-3"
       d="m 13.229173,278.24159 v -5.58326 h 4.233333 l -4.233333,5.58326"
       style="fill:url(#linearGradient1545);stroke:#000000;stroke-width:0;stroke-linecap:butt;stroke-linejoin:miter;stroke-miterlimit:4;stroke-dasharray:none;stroke-opacity:1" />
    <path
       inkscape:connector-curvature="0"
       id="path1067-1-3-6"
       d="m 45.243756,278.24159 v -5.58326 h 4.233333 l -4.233333,5.58326"
       style="fill:url(#linearGradient1545);stroke:#000000;stroke-width:0;stroke-linecap:butt;stroke-linejoin:miter;stroke-miterlimit:4;stroke-dasharray:none;stroke-opacity:1" />
    <g
       id="g1163"
       style="fill:url(#linearGradient1557)"
       ns1:jacobian_sqrt="0.659979"
       inkscapeversion="0.92.3"
       ns1:alignment="middle center"
       ns1:scale="1.87080606326"
       ns1:preamble="/home/bichselb/.config/inkscape/extensions/textext/default_packages.tex"
       ns1:text="$\\cdots \\times \\tau \\times \\cdots \\to \\tau$"
       ns1:pdfconverter="pdf2svg"
       ns1:texconverter="pdflatex"
       ns1:version="0.9.1"
       transform="matrix(0.659979,0,0,0.659979,-42.662282,194.74662)">
      <g
         style="fill:url(#linearGradient1557)"
         id="g1161">
        <g
           id="g1119"
           style="fill:url(#linearGradient1557);fill-opacity:1">
          <path
             id="path1117"
             transform="translate(148.712,134.765)"
             d="m 1.90625,-2.5 c 0,-0.28125 -0.234375,-0.515625 -0.515625,-0.515625 -0.296875,0 -0.53125,0.234375 -0.53125,0.515625 0,0.296875 0.234375,0.53125 0.53125,0.53125 0.28125,0 0.515625,-0.234375 0.515625,-0.53125 z m 0,0"
             style="fill:url(#linearGradient1557);stroke:none;stroke-width:0"
             inkscape:connector-curvature="0" />
        </g>
        <g
           id="g1123"
           style="fill:url(#linearGradient1557);fill-opacity:1">
          <path
             id="path1121"
             transform="translate(153.14336,134.765)"
             d="m 1.90625,-2.5 c 0,-0.28125 -0.234375,-0.515625 -0.515625,-0.515625 -0.296875,0 -0.53125,0.234375 -0.53125,0.515625 0,0.296875 0.234375,0.53125 0.53125,0.53125 0.28125,0 0.515625,-0.234375 0.515625,-0.53125 z m 0,0"
             style="fill:url(#linearGradient1557);stroke:none;stroke-width:0"
             inkscape:connector-curvature="0" />
        </g>
        <g
           id="g1127"
           style="fill:url(#linearGradient1557);fill-opacity:1">
          <path
             id="path1125"
             transform="translate(157.56477,134.765)"
             d="m 1.90625,-2.5 c 0,-0.28125 -0.234375,-0.515625 -0.515625,-0.515625 -0.296875,0 -0.53125,0.234375 -0.53125,0.515625 0,0.296875 0.234375,0.53125 0.53125,0.53125 0.28125,0 0.515625,-0.234375 0.515625,-0.53125 z m 0,0"
             style="fill:url(#linearGradient1557);stroke:none;stroke-width:0"
             inkscape:connector-curvature="0" />
        </g>
        <g
           id="g1131"
           style="fill:url(#linearGradient1557);fill-opacity:1">
          <path
             id="path1129"
             transform="translate(162.55404,134.765)"
             d="M 3.875,-2.765625 1.890625,-4.75 C 1.765625,-4.875 1.75,-4.890625 1.671875,-4.890625 1.5625,-4.890625 1.46875,-4.8125 1.46875,-4.6875 c 0,0.0625 0.015625,0.078125 0.125,0.1875 l 2,2 -2,2.015625 c -0.109375,0.109375 -0.125,0.125 -0.125,0.1875 0,0.125 0.09375,0.203125 0.203125,0.203125 0.078125,0 0.09375,-0.015625 0.21875,-0.140625 L 3.875,-2.21875 l 2.0625,2.0625 c 0.015625,0.015625 0.078125,0.0625 0.140625,0.0625 0.125,0 0.203125,-0.078125 0.203125,-0.203125 0,-0.015625 0,-0.046875 -0.03125,-0.109375 C 6.234375,-0.421875 4.65625,-1.984375 4.15625,-2.5 l 1.828125,-1.8125 c 0.046875,-0.0625 0.203125,-0.1875 0.25,-0.25 0,-0.015625 0.046875,-0.0625 0.046875,-0.125 0,-0.125 -0.078125,-0.203125 -0.203125,-0.203125 C 6,-4.890625 5.96875,-4.859375 5.859375,-4.75 Z m 0,0"
             style="fill:url(#linearGradient1557);stroke:none;stroke-width:0"
             inkscape:connector-curvature="0" />
        </g>
        <g
           id="g1135"
           style="fill:url(#linearGradient1557);fill-opacity:1">
          <path
             id="path1133"
             transform="translate(172.512,134.765)"
             d="m 2.9375,-3.71875 h 1.671875 c 0.125,0 0.484375,0 0.484375,-0.34375 0,-0.234375 -0.203125,-0.234375 -0.40625,-0.234375 H 1.90625 c -0.203125,0 -0.59375,0 -1.03125,0.46875 -0.328125,0.359375 -0.609375,0.84375 -0.609375,0.890625 0,0.015625 0,0.109375 0.125,0.109375 0.078125,0 0.09375,-0.046875 0.15625,-0.125 C 1.03125,-3.71875 1.609375,-3.71875 1.8125,-3.71875 h 0.828125 l -0.96875,3.203125 C 1.625,-0.40625 1.5625,-0.1875 1.5625,-0.15625 c 0,0.109375 0.078125,0.28125 0.296875,0.28125 0.328125,0 0.375,-0.28125 0.40625,-0.4375 z m 0,0"
             style="fill:url(#linearGradient1557);stroke:none;stroke-width:0"
             inkscape:connector-curvature="0" />
        </g>
        <g
           id="g1139"
           style="fill:url(#linearGradient1557);fill-opacity:1">
          <path
             id="path1137"
             transform="translate(180.209,134.765)"
             d="M 3.875,-2.765625 1.890625,-4.75 C 1.765625,-4.875 1.75,-4.890625 1.671875,-4.890625 1.5625,-4.890625 1.46875,-4.8125 1.46875,-4.6875 c 0,0.0625 0.015625,0.078125 0.125,0.1875 l 2,2 -2,2.015625 c -0.109375,0.109375 -0.125,0.125 -0.125,0.1875 0,0.125 0.09375,0.203125 0.203125,0.203125 0.078125,0 0.09375,-0.015625 0.21875,-0.140625 L 3.875,-2.21875 l 2.0625,2.0625 c 0.015625,0.015625 0.078125,0.0625 0.140625,0.0625 0.125,0 0.203125,-0.078125 0.203125,-0.203125 0,-0.015625 0,-0.046875 -0.03125,-0.109375 C 6.234375,-0.421875 4.65625,-1.984375 4.15625,-2.5 l 1.828125,-1.8125 c 0.046875,-0.0625 0.203125,-0.1875 0.25,-0.25 0,-0.015625 0.046875,-0.0625 0.046875,-0.125 0,-0.125 -0.078125,-0.203125 -0.203125,-0.203125 C 6,-4.890625 5.96875,-4.859375 5.859375,-4.75 Z m 0,0"
             style="fill:url(#linearGradient1557);stroke:none;stroke-width:0"
             inkscape:connector-curvature="0" />
        </g>
        <g
           id="g1143"
           style="fill:url(#linearGradient1557);fill-opacity:1">
          <path
             id="path1141"
             transform="translate(190.16961,134.765)"
             d="m 1.90625,-2.5 c 0,-0.28125 -0.234375,-0.515625 -0.515625,-0.515625 -0.296875,0 -0.53125,0.234375 -0.53125,0.515625 0,0.296875 0.234375,0.53125 0.53125,0.53125 0.28125,0 0.515625,-0.234375 0.515625,-0.53125 z m 0,0"
             style="fill:url(#linearGradient1557);stroke:none;stroke-width:0"
             inkscape:connector-curvature="0" />
        </g>
        <g
           id="g1147"
           style="fill:url(#linearGradient1557);fill-opacity:1">
          <path
             id="path1145"
             transform="translate(194.60097,134.765)"
             d="m 1.90625,-2.5 c 0,-0.28125 -0.234375,-0.515625 -0.515625,-0.515625 -0.296875,0 -0.53125,0.234375 -0.53125,0.515625 0,0.296875 0.234375,0.53125 0.53125,0.53125 0.28125,0 0.515625,-0.234375 0.515625,-0.53125 z m 0,0"
             style="fill:url(#linearGradient1557);stroke:none;stroke-width:0"
             inkscape:connector-curvature="0" />
        </g>
        <g
           id="g1151"
           style="fill:url(#linearGradient1557);fill-opacity:1">
          <path
             id="path1149"
             transform="translate(199.02237,134.765)"
             d="m 1.90625,-2.5 c 0,-0.28125 -0.234375,-0.515625 -0.515625,-0.515625 -0.296875,0 -0.53125,0.234375 -0.53125,0.515625 0,0.296875 0.234375,0.53125 0.53125,0.53125 0.28125,0 0.515625,-0.234375 0.515625,-0.53125 z m 0,0"
             style="fill:url(#linearGradient1557);stroke:none;stroke-width:0"
             inkscape:connector-curvature="0" />
        </g>
        <g
           id="g1155"
           style="fill:url(#linearGradient1557);fill-opacity:1">
          <path
             id="path1153"
             transform="translate(204.55959,134.765)"
             d="M 8.3125,-2.296875 C 7.765625,-1.875 7.5,-1.46875 7.421875,-1.328125 c -0.453125,0.6875 -0.53125,1.3125 -0.53125,1.3125 0,0.125 0.125,0.125 0.203125,0.125 C 7.25,0.109375 7.265625,0.09375 7.3125,-0.09375 7.53125,-1.0625 8.125,-1.90625 9.25,-2.359375 9.375,-2.40625 9.40625,-2.421875 9.40625,-2.5 c 0,-0.0625 -0.0625,-0.09375 -0.078125,-0.109375 C 8.875,-2.765625 7.671875,-3.265625 7.296875,-4.9375 7.265625,-5.0625 7.25,-5.09375 7.09375,-5.09375 c -0.078125,0 -0.203125,0 -0.203125,0.125 0,0.015625 0.09375,0.640625 0.5,1.3125 0.203125,0.296875 0.5,0.640625 0.921875,0.96875 H 0.90625 c -0.171875,0 -0.359375,0 -0.359375,0.1875 0,0.203125 0.1875,0.203125 0.359375,0.203125 z m 0,0"
             style="fill:url(#linearGradient1557);stroke:none;stroke-width:0"
             inkscape:connector-curvature="0" />
        </g>
        <g
           id="g1159"
           style="fill:url(#linearGradient1557);fill-opacity:1">
          <path
             id="path1157"
             transform="translate(217.292,134.765)"
             d="m 2.9375,-3.71875 h 1.671875 c 0.125,0 0.484375,0 0.484375,-0.34375 0,-0.234375 -0.203125,-0.234375 -0.40625,-0.234375 H 1.90625 c -0.203125,0 -0.59375,0 -1.03125,0.46875 -0.328125,0.359375 -0.609375,0.84375 -0.609375,0.890625 0,0.015625 0,0.109375 0.125,0.109375 0.078125,0 0.09375,-0.046875 0.15625,-0.125 C 1.03125,-3.71875 1.609375,-3.71875 1.8125,-3.71875 h 0.828125 l -0.96875,3.203125 C 1.625,-0.40625 1.5625,-0.1875 1.5625,-0.15625 c 0,0.109375 0.078125,0.28125 0.296875,0.28125 0.328125,0 0.375,-0.28125 0.40625,-0.4375 z m 0,0"
             style="fill:url(#linearGradient1557);stroke:none;stroke-width:0"
             inkscape:connector-curvature="0" />
        </g>
      </g>
    </g>
  </g>
</svg>
