<?xml version="1.0" encoding="UTF-8" standalone="no"?>
<!-- Generator: Adobe Illustrator 19.2.0, SVG Export Plug-In . SVG Version: 6.00 Build 0)  -->

<svg
   xmlns:dc="http://purl.org/dc/elements/1.1/"
   xmlns:cc="http://creativecommons.org/ns#"
   xmlns:rdf="http://www.w3.org/1999/02/22-rdf-syntax-ns#"
   xmlns:svg="http://www.w3.org/2000/svg"
   xmlns="http://www.w3.org/2000/svg"
   xmlns:sodipodi="http://sodipodi.sourceforge.net/DTD/sodipodi-0.dtd"
   xmlns:inkscape="http://www.inkscape.org/namespaces/inkscape"
   version="1.1"
   id="Layer_1"
   x="0px"
   y="0px"
   viewBox="183 130 1200 628.99998"
   xml:space="preserve"
   sodipodi:docname="logo_og.svg"
   width="1200"
   height="629"
   inkscape:version="0.92.3 (2405546, 2018-03-11)"
   inkscape:export-filename="/home/beni/Documents/Schule/PhD/Research/quantum-all/hql-webpage/jekyll/assets/images/logo_og.png"
   inkscape:export-xdpi="96"
   inkscape:export-ydpi="96"><metadata
   id="metadata35"><rdf:RDF><cc:Work
       rdf:about=""><dc:format>image/svg+xml</dc:format><dc:type
         rdf:resource="http://purl.org/dc/dcmitype/StillImage" /><dc:title /></cc:Work></rdf:RDF></metadata><defs
   id="defs33">




</defs><sodipodi:namedview
   pagecolor="#ffffff"
   bordercolor="#666666"
   borderopacity="1"
   objecttolerance="10"
   gridtolerance="10"
   guidetolerance="10"
   inkscape:pageopacity="1"
   inkscape:pageshadow="2"
   inkscape:window-width="1853"
   inkscape:window-height="1025"
   id="namedview31"
   showgrid="false"
   inkscape:zoom="0.43999081"
   inkscape:cx="1259.7882"
   inkscape:cy="556.80845"
   inkscape:window-x="67"
   inkscape:window-y="27"
   inkscape:window-maximized="1"
   inkscape:current-layer="Layer_1"
   inkscape:snap-bbox="true"
   inkscape:bbox-nodes="true"
   inkscape:snap-nodes="false"
   inkscape:snap-others="false"
   inkscape:snap-grids="false"
   inkscape:bbox-paths="true"
   inkscape:snap-bbox-edge-midpoints="true"
   inkscape:snap-bbox-midpoints="true"><inkscape:grid
     type="xygrid"
     id="grid827" /></sodipodi:namedview>
<style
   type="text/css"
   id="style2">
	.st0{fill:#00728D;}
	.st1{fill:#32B9DC;}
	.st2{fill:#0286AA;}
</style>

<g
   id="g28"
   transform="matrix(2.8765631,0,0,2.8765631,-411.92945,-276.9325)"
   style="stroke-width:0.34763709">
	<g
   id="g14"
   style="stroke-width:0.34763709">
		<g
   id="g12"
   style="stroke-width:0.34763709">
			<path
   class="st0"
   d="m 437.9,234.7 c -1.6,-1.5 -3.5,-2.8 -5.5,-3.8 -1.9,-1 -3.9,-1.9 -5.9,-2.7 -2,-0.8 -3.9,-1.6 -5.8,-2.3 -1.7,-0.7 -3.3,-1.5 -4.6,-2.5 -1.3,-0.9 -2.3,-1.9 -3,-3.2 -0.7,-1.1 -1.1,-2.6 -1.1,-4.4 v -1.3 c 0,-1.2 0.2,-2.3 0.7,-3.4 0.5,-1 1.1,-2 1.9,-2.7 0.8,-0.8 1.7,-1.4 2.8,-1.9 1,-0.4 2.2,-0.7 3.4,-0.7 h 3.7 c 1.2,0 2.3,0.2 3.4,0.7 1.1,0.5 2,1.1 2.8,1.9 0.8,0.8 1.4,1.7 1.9,2.8 0.5,1 0.7,2.2 0.7,3.4 v 5 l 9.9,-1.6 v -3.4 c 0,-2.5 -0.5,-4.9 -1.4,-7.1 -0.9,-2.2 -2.3,-4.1 -3.9,-5.8 -1.7,-1.7 -3.6,-3 -5.8,-3.9 -2.2,-0.9 -4.6,-1.4 -7.1,-1.4 h -4.3 c -2.5,0 -4.9,0.5 -7.1,1.4 -2.2,0.9 -4.2,2.3 -5.8,3.9 -1.7,1.7 -3,3.6 -3.9,5.8 -1,2.2 -1.4,4.6 -1.4,7.1 v 1.3 c 0,3.1 0.5,5.8 1.5,8 1,2.2 2.4,4.1 4,5.6 1.6,1.5 3.5,2.7 5.5,3.7 1.9,0.9 3.9,1.8 5.9,2.5 2,0.7 3.9,1.5 5.7,2.2 1.7,0.7 3.3,1.5 4.6,2.5 1.3,0.9 2.3,2 3,3.3 0.7,1.2 1.1,2.8 1.1,4.7 v 2 c 0,1.2 -0.2,2.3 -0.7,3.3 -0.5,1.1 -1.2,2 -2,2.8 -0.8,0.8 -1.8,1.4 -2.9,1.9 -1.1,0.5 -2.2,0.7 -3.5,0.7 h -4.2 c -1.2,0 -2.4,-0.2 -3.5,-0.7 -1.1,-0.5 -2.1,-1.1 -2.9,-1.9 -0.8,-0.8 -1.5,-1.7 -2,-2.8 -0.5,-1 -0.7,-2.1 -0.7,-3.3 v -5.9 l -9.9,1.6 v 4.3 c 0,2.5 0.5,4.9 1.5,7.2 1,2.2 2.4,4.1 4.1,5.8 1.7,1.6 3.7,3 5.9,3.9 2.3,0.9 4.7,1.4 7.2,1.4 h 4.8 c 2.5,0 4.9,-0.5 7.2,-1.4 2.2,-0.9 4.2,-2.3 5.9,-3.9 1.7,-1.6 3.1,-3.6 4.1,-5.8 1,-2.2 1.5,-4.6 1.5,-7.2 v -2 c 0,-3.1 -0.5,-5.8 -1.5,-8 -1.2,-2.3 -2.6,-4.2 -4.3,-5.7 z"
   id="path4"
   inkscape:connector-curvature="0"
   style="fill:#00728d;stroke-width:0.34763709" />
			<rect
   x="471.39999"
   y="197.3"
   class="st0"
   width="9.8999996"
   height="70.400002"
   id="rect6"
   style="fill:#00728d;stroke-width:0.34763709" />
			<polygon
   class="st0"
   points="520.5,258.1 520.5,197.3 510.6,197.3 510.6,267.7 545.9,267.7 545.9,258.1 "
   id="polygon8"
   style="fill:#00728d;stroke-width:0.34763709" />
			<path
   class="st0"
   d="m 609.4,207.5 c -0.9,-2.2 -2.3,-4.1 -3.9,-5.8 -1.6,-1.7 -3.6,-3 -5.8,-3.9 -2.2,-0.9 -4.6,-1.4 -7.1,-1.4 h -4.7 c -2.5,0 -4.9,0.5 -7.1,1.4 -2.2,0.9 -4.2,2.3 -5.8,3.9 -1.7,1.7 -3,3.6 -3.9,5.8 -1,2.2 -1.4,4.6 -1.4,7.1 v 35.7 c 0,2.5 0.5,4.9 1.4,7.1 0.9,2.2 2.3,4.1 3.9,5.8 1.7,1.7 3.6,3 5.8,3.9 1.8,0.8 3.8,1.3 5.9,1.4 l 6.1,13.7 H 603 l -6.2,-14.1 c 1.4,-0.3 2.7,-0.8 4,-1.4 2,-1 3.8,-2.3 5.4,-4 1.5,-1.6 2.7,-3.5 3.6,-5.7 0.9,-2.1 1.3,-4.4 1.3,-6.8 v -35.7 c -0.2,-2.4 -0.7,-4.8 -1.7,-7 z m -17.1,51.6 h -4.2 c -1.2,0 -2.3,-0.2 -3.4,-0.7 -1.1,-0.5 -2,-1.1 -2.8,-1.9 -0.8,-0.8 -1.4,-1.7 -1.9,-2.8 -0.4,-1 -0.7,-2.2 -0.7,-3.4 v -35.7 c 0,-1.2 0.2,-2.3 0.7,-3.4 0.5,-1 1.1,-2 1.9,-2.7 0.8,-0.8 1.7,-1.4 2.8,-1.9 1,-0.4 2.2,-0.7 3.4,-0.7 h 4.2 c 1.2,0 2.3,0.2 3.4,0.7 1.1,0.5 2,1.1 2.8,1.9 0.8,0.8 1.4,1.7 1.9,2.8 0.5,1 0.7,2.2 0.7,3.4 v 35.7 c 0,1.2 -0.2,2.3 -0.7,3.4 -0.5,1.1 -1.1,2 -1.9,2.8 -0.8,0.8 -1.7,1.4 -2.7,1.9 -1.1,0.4 -2.2,0.6 -3.5,0.6 z"
   id="path10"
   inkscape:connector-curvature="0"
   style="fill:#00728d;stroke-width:0.34763709" />
		</g>
	</g>
	<path
   class="st1"
   d="m 355.3,185.3 c 4.4,5.1 -2.5,20.4 -23.8,40.1 -7.3,-6.3 -15.4,-12.5 -24.1,-18.4 -4,-2.7 -8.1,-5.2 -12.1,-7.7 29.9,-16.1 54.2,-20.8 60,-14 z"
   id="path16"
   inkscape:connector-curvature="0"
   style="fill:#32b9dc;stroke-width:0.34763709" />
	<path
   class="st0"
   d="m 288.2,155.7 c 7.2,0 14.9,11.6 19.7,29.6 -6.5,2.8 -13.1,6.1 -19.7,9.8 -6.3,-3.5 -13,-6.9 -19.7,-9.8 4.8,-18.1 12.4,-29.6 19.7,-29.6 z"
   id="path18"
   inkscape:connector-curvature="0"
   style="fill:#00728d;stroke-width:0.34763709" />
	<path
   class="st2"
   d="m 219.9,190.7 c -0.3,-2.4 0.1,-4.2 1.2,-5.5 1.6,-1.9 4.9,-2.9 9.6,-2.9 10.8,0 28.8,5.3 50.4,16.9 -4.1,2.5 -8.2,5 -12.1,7.7 -8.8,6 -16.9,12.2 -24.1,18.4 -15.8,-14.5 -24,-27.1 -25,-34.6 z"
   id="path20"
   inkscape:connector-curvature="0"
   style="fill:#0286aa;stroke-width:0.34763709" />
	<path
   class="st0"
   d="m 221,274.9 c -1.1,-1.3 -1.5,-3.1 -1.2,-5.5 1,-7.5 9.2,-20.1 25,-34.6 3.7,3.2 7.6,6.4 11.7,9.5 0.6,9.6 1.9,18.4 3.6,26.3 -23.4,9.4 -35.7,8.2 -39.1,4.3 z"
   id="path22"
   inkscape:connector-curvature="0"
   style="fill:#00728d;stroke-width:0.34763709" />
	<path
   class="st2"
   d="m 288.2,304.4 c -9.6,0 -20.8,-20.3 -24.1,-54.6 1.6,1.1 3.2,2.2 4.8,3.3 12.5,8.4 26,16 38.9,21.6 -4.7,18.2 -12.4,29.7 -19.6,29.7 z"
   id="path24"
   inkscape:connector-curvature="0"
   style="fill:#0286aa;stroke-width:0.34763709" />
	<path
   class="st1"
   d="m 355.3,274.9 c -7.2,8.4 -42.8,-0.8 -82.4,-27.5 -8.7,-5.9 -16.3,-11.7 -22.8,-17.3 6.5,-5.6 14.1,-11.4 22.8,-17.3 5.2,-3.5 10.3,-6.7 15.3,-9.6 5.2,3 10.3,6.2 15.3,9.6 9.3,6.3 17.9,12.9 25.4,19.6 23.4,20.8 31,37.1 26.4,42.5 z"
   id="path26"
   inkscape:connector-curvature="0"
   style="fill:#32b9dc;stroke-width:0.34763709" />
</g><text
   xml:space="preserve"
   style="font-style:normal;font-variant:normal;font-weight:normal;font-stretch:normal;font-size:16.33482933px;line-height:1.25;font-family:'Bera Sans Mono';-inkscape-font-specification:'Bera Sans Mono, Normal';font-variant-ligatures:normal;font-variant-caps:normal;font-variant-numeric:normal;font-feature-settings:normal;text-align:start;letter-spacing:0px;word-spacing:0px;writing-mode:lr-tb;text-anchor:start;fill:#005c73;fill-opacity:1;stroke:none;stroke-width:1.35062718"
   x="214.20171"
   y="694.25439"
   id="text842"><tspan
     sodipodi:role="line"
     id="tspan840"
     x="214.20171"
     y="694.25439"
     style="font-style:normal;font-variant:normal;font-weight:600;font-stretch:normal;font-size:71.46380615px;font-family:'Nunito Sans';-inkscape-font-specification:'Nunito Sans, Semi-Bold';font-variant-ligatures:normal;font-variant-caps:normal;font-variant-numeric:normal;font-feature-settings:normal;text-align:start;writing-mode:lr-tb;text-anchor:start;fill:#005c73;fill-opacity:1;stroke-width:1.35066056">High-Level Quantum Programming</tspan></text>

</svg>